<mxfile host="app.diagrams.net" modified="2024-05-23T13:52:51.427Z" agent="Mozilla/5.0 (Windows NT 10.0; Win64; x64) AppleWebKit/537.36 (KHTML, like Gecko) Chrome/121.0.0.0 Safari/537.36" etag="Yx6efxL12sa4SEwc4Gmh" version="24.4.6" type="github">
  <diagram name="Página-1" id="ppASfZNMz83kWTDRJryO">
    <mxGraphModel dx="1434" dy="1951" grid="1" gridSize="10" guides="1" tooltips="1" connect="1" arrows="1" fold="1" page="1" pageScale="1" pageWidth="827" pageHeight="1169" math="0" shadow="0">
      <root>
        <mxCell id="0" />
        <mxCell id="1" parent="0" />
        <mxCell id="v6BFmlkOkgKby84U0_Hy-3" value="" style="edgeStyle=orthogonalEdgeStyle;rounded=0;orthogonalLoop=1;jettySize=auto;html=1;" parent="1" edge="1">
          <mxGeometry relative="1" as="geometry">
            <mxPoint x="374.5" y="180" as="targetPoint" />
            <mxPoint x="374.5" y="140" as="sourcePoint" />
          </mxGeometry>
        </mxCell>
        <mxCell id="v6BFmlkOkgKby84U0_Hy-6" value="" style="edgeStyle=orthogonalEdgeStyle;rounded=0;orthogonalLoop=1;jettySize=auto;html=1;" parent="1" source="v6BFmlkOkgKby84U0_Hy-4" target="v6BFmlkOkgKby84U0_Hy-5" edge="1">
          <mxGeometry relative="1" as="geometry" />
        </mxCell>
        <mxCell id="v6BFmlkOkgKby84U0_Hy-4" value="&lt;font style=&quot;vertical-align: inherit;&quot;&gt;&lt;font style=&quot;vertical-align: inherit;&quot;&gt;atualizar dados do material&lt;/font&gt;&lt;/font&gt;" style="rounded=0;whiteSpace=wrap;html=1;fillColor=#ffe6cc;strokeColor=#d79b00;fontStyle=1" parent="1" vertex="1">
          <mxGeometry x="320" y="180" width="120" height="60" as="geometry" />
        </mxCell>
        <mxCell id="v6BFmlkOkgKby84U0_Hy-11" value="" style="edgeStyle=orthogonalEdgeStyle;rounded=0;orthogonalLoop=1;jettySize=auto;html=1;exitX=0.5;exitY=0.875;exitDx=0;exitDy=0;exitPerimeter=0;" parent="1" source="v6BFmlkOkgKby84U0_Hy-5" target="v6BFmlkOkgKby84U0_Hy-7" edge="1">
          <mxGeometry relative="1" as="geometry" />
        </mxCell>
        <mxCell id="v6BFmlkOkgKby84U0_Hy-5" value="verificar material" style="shape=document;whiteSpace=wrap;html=1;boundedLbl=1;fillColor=#ffe6cc;strokeColor=#d79b00;rounded=0;fontStyle=1" parent="1" vertex="1">
          <mxGeometry x="320" y="310" width="120" height="80" as="geometry" />
        </mxCell>
        <mxCell id="v6BFmlkOkgKby84U0_Hy-13" value="" style="edgeStyle=orthogonalEdgeStyle;rounded=0;orthogonalLoop=1;jettySize=auto;html=1;" parent="1" source="v6BFmlkOkgKby84U0_Hy-7" target="v6BFmlkOkgKby84U0_Hy-12" edge="1">
          <mxGeometry relative="1" as="geometry" />
        </mxCell>
        <mxCell id="v6BFmlkOkgKby84U0_Hy-7" value="dizer por qual fornecedor é oferecido" style="rounded=0;whiteSpace=wrap;html=1;fillColor=#ffe6cc;strokeColor=#d79b00;fontStyle=1" parent="1" vertex="1">
          <mxGeometry x="320" y="480" width="120" height="60" as="geometry" />
        </mxCell>
        <mxCell id="v6BFmlkOkgKby84U0_Hy-15" value="" style="edgeStyle=orthogonalEdgeStyle;rounded=0;orthogonalLoop=1;jettySize=auto;html=1;" parent="1" source="v6BFmlkOkgKby84U0_Hy-12" target="v6BFmlkOkgKby84U0_Hy-14" edge="1">
          <mxGeometry relative="1" as="geometry" />
        </mxCell>
        <mxCell id="v6BFmlkOkgKby84U0_Hy-17" value="" style="edgeStyle=orthogonalEdgeStyle;rounded=0;orthogonalLoop=1;jettySize=auto;html=1;" parent="1" source="v6BFmlkOkgKby84U0_Hy-12" target="v6BFmlkOkgKby84U0_Hy-16" edge="1">
          <mxGeometry relative="1" as="geometry" />
        </mxCell>
        <mxCell id="v6BFmlkOkgKby84U0_Hy-12" value="ha demanda no estoque" style="rhombus;whiteSpace=wrap;html=1;fillColor=#ffe6cc;strokeColor=#d79b00;rounded=0;fontStyle=1" parent="1" vertex="1">
          <mxGeometry x="315" y="630" width="130" height="100" as="geometry" />
        </mxCell>
        <mxCell id="v6BFmlkOkgKby84U0_Hy-14" value="solicitação de compra" style="rounded=0;whiteSpace=wrap;html=1;fillColor=#ffe6cc;strokeColor=#d79b00;fontStyle=1" parent="1" vertex="1">
          <mxGeometry x="530" y="650" width="120" height="60" as="geometry" />
        </mxCell>
        <mxCell id="v6BFmlkOkgKby84U0_Hy-16" value="fim do cadastro do material" style="ellipse;whiteSpace=wrap;html=1;fillColor=#ffe6cc;strokeColor=#d79b00;rounded=0;fontStyle=1" parent="1" vertex="1">
          <mxGeometry x="60" y="650" width="130" height="60" as="geometry" />
        </mxCell>
        <mxCell id="v6BFmlkOkgKby84U0_Hy-19" value="SIM" style="text;strokeColor=none;align=center;fillColor=none;html=1;verticalAlign=middle;whiteSpace=wrap;rounded=0;" parent="1" vertex="1">
          <mxGeometry x="445" y="650" width="60" height="30" as="geometry" />
        </mxCell>
        <mxCell id="v6BFmlkOkgKby84U0_Hy-20" value="NÃO" style="text;strokeColor=none;align=center;fillColor=none;html=1;verticalAlign=middle;whiteSpace=wrap;rounded=0;" parent="1" vertex="1">
          <mxGeometry x="220" y="650" width="60" height="30" as="geometry" />
        </mxCell>
        <mxCell id="FVInoKY-JB7J4ZqU2rof-3" value="" style="edgeStyle=orthogonalEdgeStyle;rounded=0;orthogonalLoop=1;jettySize=auto;html=1;" edge="1" parent="1" source="FVInoKY-JB7J4ZqU2rof-1" target="FVInoKY-JB7J4ZqU2rof-2">
          <mxGeometry relative="1" as="geometry" />
        </mxCell>
        <mxCell id="FVInoKY-JB7J4ZqU2rof-1" value="inicio" style="ellipse;whiteSpace=wrap;html=1;fillColor=#ffe6cc;strokeColor=#d79b00;" vertex="1" parent="1">
          <mxGeometry x="310" y="-270" width="120" height="60" as="geometry" />
        </mxCell>
        <mxCell id="FVInoKY-JB7J4ZqU2rof-6" value="" style="edgeStyle=orthogonalEdgeStyle;rounded=0;orthogonalLoop=1;jettySize=auto;html=1;" edge="1" parent="1" source="FVInoKY-JB7J4ZqU2rof-2" target="FVInoKY-JB7J4ZqU2rof-5">
          <mxGeometry relative="1" as="geometry" />
        </mxCell>
        <mxCell id="FVInoKY-JB7J4ZqU2rof-2" value="ir para página de menu" style="whiteSpace=wrap;html=1;fillColor=#ffe6cc;strokeColor=#d79b00;" vertex="1" parent="1">
          <mxGeometry x="310" y="-170" width="120" height="60" as="geometry" />
        </mxCell>
        <mxCell id="FVInoKY-JB7J4ZqU2rof-7" value="" style="edgeStyle=orthogonalEdgeStyle;rounded=0;orthogonalLoop=1;jettySize=auto;html=1;" edge="1" parent="1" source="FVInoKY-JB7J4ZqU2rof-5">
          <mxGeometry relative="1" as="geometry">
            <mxPoint x="370" y="60" as="targetPoint" />
            <Array as="points">
              <mxPoint x="370" y="70" />
              <mxPoint x="370" y="70" />
            </Array>
          </mxGeometry>
        </mxCell>
        <mxCell id="FVInoKY-JB7J4ZqU2rof-8" value="cadastro de produto" style="edgeLabel;html=1;align=center;verticalAlign=middle;resizable=0;points=[];" vertex="1" connectable="0" parent="FVInoKY-JB7J4ZqU2rof-7">
          <mxGeometry x="-0.4066" y="3" relative="1" as="geometry">
            <mxPoint as="offset" />
          </mxGeometry>
        </mxCell>
        <mxCell id="FVInoKY-JB7J4ZqU2rof-5" value="qual página?" style="rhombus;whiteSpace=wrap;html=1;fillColor=#ffe6cc;strokeColor=#d79b00;" vertex="1" parent="1">
          <mxGeometry x="325" y="-70" width="90" height="80" as="geometry" />
        </mxCell>
        <mxCell id="FVInoKY-JB7J4ZqU2rof-9" value="ir para página de cadastro de produto" style="rounded=0;whiteSpace=wrap;html=1;fillColor=#ffe6cc;strokeColor=#d79b00;" vertex="1" parent="1">
          <mxGeometry x="315" y="70" width="120" height="60" as="geometry" />
        </mxCell>
      </root>
    </mxGraphModel>
  </diagram>
</mxfile>
